<svg xmlns="http://www.w3.org/2000/svg" xmlns:xlink="http://www.w3.org/1999/xlink" viewBox="0 0 182.16 144.86"><defs><style>.cls-1,.cls-10,.cls-11,.cls-2,.cls-3,.cls-4,.cls-5,.cls-6,.cls-7,.cls-8,.cls-9{stroke:#000;stroke-linecap:round;stroke-linejoin:round;}.cls-1,.cls-10,.cls-2,.cls-3,.cls-4,.cls-5,.cls-6,.cls-7,.cls-8,.cls-9{stroke-width:0.5px;}.cls-1{fill:url(#linear-gradient);}.cls-2{fill:url(#linear-gradient-2);}.cls-3{fill:#f4d5bd;}.cls-11,.cls-4{fill:none;}.cls-5{fill:#9d639c;}.cls-6{fill:url(#linear-gradient-3);}.cls-7{fill:url(#linear-gradient-4);}.cls-8{fill:url(#linear-gradient-5);}.cls-9{fill:#fff;}.cls-10{fill:url(#linear-gradient-6);}.cls-11{stroke-width:0.75px;}</style><linearGradient id="linear-gradient" x1="129.25" y1="73.45" x2="173.02" y2="48.17" gradientUnits="userSpaceOnUse"><stop offset="0" stop-color="#f4a02e"/><stop offset="0.23" stop-color="#f4a52b"/><stop offset="0.49" stop-color="#f4b222"/><stop offset="0.76" stop-color="#f3c813"/><stop offset="1" stop-color="#f3e300"/></linearGradient><linearGradient id="linear-gradient-2" x1="121.44" y1="54.2" x2="142.51" y2="54.2" gradientUnits="userSpaceOnUse"><stop offset="0" stop-color="#ea4326"/><stop offset="1" stop-color="#e77127"/></linearGradient><linearGradient id="linear-gradient-3" x1="79.7" y1="98.75" x2="87.46" y2="106.51" gradientUnits="userSpaceOnUse"><stop offset="0" stop-color="#8fbb8d"/><stop offset="0.63" stop-color="#75bb69"/><stop offset="1" stop-color="#6abb59"/></linearGradient><linearGradient id="linear-gradient-4" x1="71" y1="105.93" x2="76.99" y2="116.3" xlink:href="#linear-gradient-3"/><linearGradient id="linear-gradient-5" x1="62.05" y1="107.92" x2="68.13" y2="118.46" xlink:href="#linear-gradient-3"/><linearGradient id="linear-gradient-6" x1="81.9" y1="121.58" x2="81.9" y2="29.97" gradientUnits="userSpaceOnUse"><stop offset="0" stop-color="#64b851"/><stop offset="1" stop-color="#64b851"/></linearGradient></defs><g id="Layer_2" data-name="Layer 2"><g id="Layer_2-2" data-name="Layer 2"><path class="cls-1" d="M123.69,43.94s16.16-5.82,20-5.82h3.82l-7,5.39a83.43,83.43,0,0,0,9-.87c4.17-.7,14.41-2,18.32-.87l-12.42,8.77,19.8,1.39-19.88,8.16a50.06,50.06,0,0,0,10.59,2.18A53.72,53.72,0,0,1,175.71,64a63.68,63.68,0,0,1-13.2,3c-8.77,1.21-10.16,1.56-10.16,1.56l20.5,9.12a76.37,76.37,0,0,1-24.4-2.17L161,87.8a110.66,110.66,0,0,1-20.67-10.6s3.91,8.69,4.25,10.6c0,0-9.72-9.47-13-15.29s-11.47-14.85-11.47-14.85l3.65-3-1.56-1.21L124,51.24l-2.6-1.13L124.82,47l-2.08-.69,3.56-1.48Z"/></g><g id="Layer_3" data-name="Layer 3"><path class="cls-2" d="M121.44,50.11s4.42-2.31,7.49-3.78A17.38,17.38,0,0,1,134,44.65a19.92,19.92,0,0,1-4,4s9.83.6,12.48,1.47c0,0-1.5,2-9.24,2L140,58.08l-8-.7s3.71,2.73,4.87,6.37c0,0-10.93-6.23-15.4-7.17l2.34-2-1.56-1.21L124,51.24Z"/></g><g id="Layer_5" data-name="Layer 5"><path class="cls-3" d="M40.77,67.34s5.67.36,9.12-3.86a24.84,24.84,0,0,0,4.44-7.4l-6.1-14.42s-3.77-1.2-6.45,3.4c0,0-8.54-1.64-13.31,3.68s-1,14.58-1,14.58S24.75,65.13,25,67.81a4,4,0,0,0,4.18,3.9H28s-.71,4.22,4.61,6.9a26.06,26.06,0,0,1,7.78,5.65S39.09,90,43.37,92s9.32-3.72,9.32-3.72l-2.14-1.81s1.59-2.91.33-4.17-6.64,1-6.64,1,2.42-6.36-.11-11.51-5.7-6.08-8.22-7.29"/><line class="cls-4" x1="41.78" y1="45.06" x2="42.49" y2="46.05"/><line class="cls-4" x1="27.47" y1="63.32" x2="29.39" y2="63.65"/><line class="cls-4" x1="51.22" y1="84.73" x2="46.82" y2="84.97"/><path class="cls-4" d="M51.06,86.94a5,5,0,0,1-3.75,0"/></g><g id="Layer_6" data-name="Layer 6"><path class="cls-4" d="M36.15,60.93s4.93,1.44,7.81-2.26S45.4,52,45.4,52"/><path class="cls-4" d="M32.86,69.87A9.49,9.49,0,0,0,40,76.58"/></g><g id="Layer_7" data-name="Layer 7"><path class="cls-5" d="M54.75,34.63A42.86,42.86,0,0,1,42.49,24.25c-4.8-6.37-6.34-10.06-6.34-10.06s-3,3.39-10.48,4.62c0,0,6.17,4.21,6.17,9.14,0,0,7.19,1.65,8.37,6.68,0,0,8.47-.61,11,2Z"/><path class="cls-4" d="M38.62,23.33a29.64,29.64,0,0,0-4.93,2.77"/><path class="cls-4" d="M41.78,32.17a6.25,6.25,0,0,1,1.87-3.5"/><path class="cls-4" d="M36.15,14.19c-1.19-2.32-2.46-2.06-2.46-2.06"/><path class="cls-4" d="M36.38,14.68c2.28-3.25.11-5,.11-5"/><path class="cls-4" d="M40.1,13.15s-.58,2.14-3.83,1.29"/><path class="cls-5" d="M60,31.22S67.26,22.7,68.36,4c0,0,8.14,6,12.14,6.21a16.44,16.44,0,0,0-.41,6.25s-4.84.92-5.42,5.58c0,0-9.76,1.24-10,8.14Z"/><path class="cls-4" d="M69.79,11.81a19.41,19.41,0,0,1,8.38,2.38"/><path class="cls-4" d="M68.17,18.52s2.75.25,4.12,1.59"/><path class="cls-4" d="M66.43.25A3.68,3.68,0,0,0,68.36,4"/><path class="cls-4" d="M68.33,4.59c-.56-3,1-4.34,1-4.34"/><path class="cls-4" d="M70.91,2a3.12,3.12,0,0,0-2.6,2.9"/></g><g id="Layer_8" data-name="Layer 8"><polyline class="cls-4" points="92.83 20.46 97.85 32.17 102.63 16.78"/><circle cx="93.99" cy="30.45" r="1.16"/><ellipse cx="102.23" cy="30.42" rx="1.09" ry="1.16"/></g><g id="Layer_9" data-name="Layer 9"><path class="cls-6" d="M84.09,109.41S79.36,103.25,79.43,99l9.76,3S87.63,107.69,84.09,109.41Z"/><path class="cls-7" d="M73.11,116.57,72,104.73l7.75,9.3A15.32,15.32,0,0,1,73.11,116.57Z"/><polygon class="cls-8" points="63.86 116.22 64.28 106.63 70.06 117.34 63.86 116.22"/><path class="cls-4" d="M82.74,119.39V137a23.4,23.4,0,0,0,11.35-1.55"/><path class="cls-4" d="M73.72,120.44s-3.17,17.83-3.17,23.4c0,0,10.36-.43,14.31.77"/></g><g id="Layer_10" data-name="Layer 10"><polygon class="cls-9" points="98.77 44.41 100.23 46.68 102.05 44.65 98.77 44.41"/><polygon class="cls-9" points="102.05 44.88 104.16 48.55 106.33 45.01 102.05 44.88"/><polygon class="cls-9" points="105.81 44.65 108.2 48.08 110.46 45.13 105.81 44.65"/><polygon class="cls-9" points="110.36 44.65 111.45 48.55 112.95 44.65 110.36 44.65"/><polygon class="cls-9" points="113.78 44.88 114.77 48.45 115.61 44.88 113.78 44.88"/><polygon class="cls-9" points="98.31 49.11 100.25 47.42 103.18 52.29 98.31 49.11"/><polygon class="cls-9" points="105.34 53.13 107.17 49.24 108.94 53.99 105.34 53.13"/><polygon class="cls-9" points="109.18 53.99 110.46 50.54 111.55 54.36 109.18 53.99"/></g><g id="Layer_4" data-name="Layer 4"><path class="cls-10" d="M113,58.55s-10.85,2.57-24.26-8.26c-7-5.66-13.86-5.11-15.66-2.6-2.15,3,3.58,11.94,10.79,17.06s16.34,8.07,22.07,17.4S106.26,105,99,111.88s-23.74,17.87-45.2,0c0,0,15.2,8.53,23.73,3.07S93.22,99.42,91.76,86.62s-26.61-19-34-25.67S43.5,44.75,51.2,36.64s19.75-7.3,27-5.41,13.28,4.26,15.49,4.34,11,.9,14.66-.74c0,0,2.63-4.34,5.49-3.68s2.22,6.3,1.81,13.92c0,0-15.65.31-20.32-.42,0,0,3.6,8.44,17.45,9.55Z"/></g><g id="Layer_11" data-name="Layer 11"><path class="cls-4" d="M66.67,59.68s1.42,2.09,2.54,2.09S71,59.08,71,59.08"/><path class="cls-4" d="M72.57,60.8s-.39,1.38.72,1.65S75,61.52,75,61.52"/><path class="cls-4" d="M76.52,63.36S77,65,77.86,65s1.89-1.36,1.89-1.36"/><path class="cls-4" d="M75.34,65.73s.7,1.69,1.49,1.81,1.61-1.2,1.61-1.2"/><path class="cls-4" d="M80.36,66.19s.44,1.21,1.24,1.36,1.25-1.43,1.25-1.43"/><path class="cls-4" d="M70.18,63.73a1.75,1.75,0,0,0,1.58,1.4,2.51,2.51,0,0,0,2-.76"/><path class="cls-4" d="M115.61,24.47a5.38,5.38,0,0,0,3.32-4.95c0-3.7-2.69-6.7-4.57-5.84s2,3.35,3.81,1.63c2.18-2.08,3.73-6.4,2-7.47s-5.16-2.23-5.67-.71,4.11,2.44,5-.25-1.73-5.43-3-6-4.06-1-4.26,1.22"/><path class="cls-4" d="M115.12,104.73a55.15,55.15,0,0,1,7.79-1.1"/><path class="cls-11" d="M119.71,113.14s-1.11-7.33-.7-9.11"/><path class="cls-11" d="M125.58,112.91c-.66-1.19-1.94-8.18-1.94-8.18s2.37-1.72,3.89-.26-1.19,4.22-1.33,5.07,2.75,1.38,5,2.28"/><path class="cls-11" d="M136.05,103.88s-3.41.38-3.79,4.51,2.66,4.61,4,4.23a4.22,4.22,0,0,0,3.27-4.83C139.23,104.43,136.86,104.19,136.05,103.88Z"/><path class="cls-11" d="M144.3,103.43s-4.31,2-4.76,5,2.86,4.56,3.9,4.52,3.37-1.09,3.32-2.89-3.36-1.71-3.36-1.71"/><path class="cls-11" d="M150.3,103.88s.68,8,1.27,8.65,4.43.66,4.85-3.48-4.22-5.56-7.23-5.17"/><path class="cls-11" d="M161.09,103.82c-1.37-.42-3.62,1-4.33,4.76s2.53,4.27,4,4a4.42,4.42,0,0,0,3.54-4.42A4.78,4.78,0,0,0,161.09,103.82Z"/><path class="cls-11" d="M164.75,104.49s1.48,7.43,1.9,8.24"/><path class="cls-11" d="M165,105.45s2.1-2.6,3.47-1.57-.19,4.17-.9,5.7,3.35,1.29,5,2.24"/><path class="cls-11" d="M138.07,117.07a18.85,18.85,0,0,1,1.47,8.09"/><path class="cls-11" d="M137,122.54s2.84-.86,3.94,0"/><path class="cls-11" d="M141,118.88l1.49,5.71s.28-2.8,1.7-2.66,1.46,3.55,1.46,3.55"/><path class="cls-11" d="M148.93,122.71s2.16-1.45.89-2.27-3.8,1.24-3.59,2.56,1.78,2.45,4.44,2.16"/><path class="cls-11" d="M107,135.88,105.73,129s2.18-1.54,2.92.32-1.46,3.36-1.46,3.36,4-1.35,4.53,2.19-5,3.48-6,2.21"/><path class="cls-11" d="M116.11,127.89s-1.5,8.11,2.65,9.43,3.1-6.84,2-9.26"/><line class="cls-11" x1="122.57" y1="129.54" x2="124.57" y2="137.82"/><path class="cls-11" d="M122.75,130.31s1.79-2.78,3.53-1.51-.94,4.66-.91,5.43,3.77,1.09,4.92,2.44"/><path class="cls-11" d="M132.06,137.82c.59-3.9-1.15-9-1.15-9s5.52,7.81,7.76,8.61c.34.12-.06-5.64-1.95-9.12"/><path class="cls-11" d="M139.58,128.47s.71.36.74.8"/><path class="cls-11" d="M141.18,132s1.24,4,1.53,5.46"/><path class="cls-11" d="M144.63,137.47a19.37,19.37,0,0,0-1.33-9s5.85,7.94,7.64,9c.35.21.5-5.16-1.71-9.76"/><path class="cls-11" d="M151.14,138s4.46-8.29,4.55-9.13,1.74,8.81,1.74,8.81"/><line class="cls-11" x1="153.56" y1="133.41" x2="156.67" y2="133.41"/><path class="cls-11" d="M157.66,129.42a71.87,71.87,0,0,1,7.79-1.07"/><path class="cls-11" d="M161.67,128.75s-.38,5.89.56,8.54"/><path class="cls-11" d="M170.67,128.35c-1.57-.28-4.13,1.42-4.51,4.37-.25,1.88.79,4.57,3.24,4.9s4.2-1.68,4.16-4.84C173.53,130.65,172.44,128.67,170.67,128.35Z"/><path class="cls-11" d="M174.15,129.42s1.18,5.24,1.74,8.05l-1.59-7.35s2.47-3.27,3.89-.85-1.33,3.72-1.39,4.81,3.89,1.56,5,2.59"/><line class="cls-4" x1="20.49" y1="41.52" x2="11.12" y2="33.83"/><line class="cls-4" x1="15.8" y1="61.21" x2="0.25" y2="59.08"/><line class="cls-4" x1="28.43" y1="88.85" x2="15.8" y2="95.04"/><line class="cls-4" x1="134.85" y1="24.47" x2="146.22" y2="15.43"/><line class="cls-4" x1="52.77" y1="14.68" x2="43.65" y2="5.56"/><ellipse class="cls-4" cx="112.95" cy="34.36" rx="1.15" ry="1.22"/></g></g></svg>